<svg width="512" height="512" viewBox="0 0 512 512" fill="none" xmlns="http://www.w3.org/2000/svg">
  <rect width="512" height="512" rx="96" fill="#3B82F6"/>
  <path fill-rule="evenodd" clip-rule="evenodd" d="M256 144.373C196.484 144.373 144 194.814 144 257.437C144 336.085 237.545 381.18 256 399.627C274.455 381.18 368 336.085 368 257.437C368 194.814 315.516 144.373 256 144.373ZM280.449 275.698C282.887 272.186 281.44 267.35 277.67 265.418C263.153 257.873 257.734 241.054 265.717 226.793C268.455 221.996 265.74 216.03 260.101 214.99C254.462 213.95 248.835 216.79 247.262 222.257C235.474 262.53 271.704 284.14 278.892 277.636C279.52 277.086 279.799 276.322 280.449 275.698Z" fill="white"/>
</svg>
